<svg xmlns:xlink="http://www.w3.org/1999/xlink" xmlns="http://www.w3.org/2000/svg" viewBox="0 0 312.5 312.5" preserveAspectRatio="xMidYMid meet" class="css-ata32y" id="hfghagba" width="312.5"  height="312.5" ><defs id="SvgjsDefs4797"></defs><g id="SvgjsG4798" featurekey="rootContainer" transform="matrix(6.25,0,0,6.25,0.31249597668647766,0)" fill="#FFFFFF"><path xmlns="http://www.w3.org/2000/svg" d="M24.95 0a25 25 0 1 0 25 25 25 25 0 0 0-25-25zm0 46.91a22 22 0 1 1 22-22 22 22 0 0 1-22 21.99z" fill="#FFFFFF"></path><path xmlns="http://www.w3.org/2000/svg" d="M24.95 3.65a21.3 21.3 0 1 0 21.3 21.3 21.33 21.33 0 0 0-21.3-21.3z" fill="#FFFFFF"></path></g><g id="SvgjsG4799" featurekey="nameFeature-0" transform="matrix(2.6150626467234352,0,0,2.6150626467234352,51.397489143226416,88.24686516991014)" fill="#39424A"><path d="M21.6 40 l-19.84 0 l0 -28.24 l8.92 0 l0 21.12 l10.92 0 l0 7.12 z M55 40 l-10.52 0 l-6.16 -10.16 l-6.24 10.16 l-10.48 0 l10.92 -15.16 l-9.16 -13.08 l10.48 0 l4.48 7.76 l4.56 -7.76 l10.2 0 l-8.92 13.04 z M78.24 18.72 l-7.16 0 l0 21.28 l-8.92 0 l0 -21.28 l-7.2 0 l0 -6.96 l23.28 0 l0 6.96 z" fill="#39424A"></path></g></svg>